<svg id="visual" viewBox="0 0 900 600" width="900" height="600" xmlns="http://www.w3.org/2000/svg" xmlns:xlink="http://www.w3.org/1999/xlink" version="1.1"><rect width="900" height="600" fill="#01121e"></rect><g><g transform="translate(527 10)"><path d="M0 -147L114.9 -91.7L143.3 32.7L63.8 132.4L-63.8 132.4L-143.3 32.7L-114.9 -91.7Z" fill="#297EA6"></path></g><g transform="translate(160 68)"><path d="M0 -77L60.2 -48L75.1 17.1L33.4 69.4L-33.4 69.4L-75.1 17.1L-60.2 -48Z" fill="#297EA6"></path></g><g transform="translate(488 550)"><path d="M0 -126L98.5 -78.6L122.8 28L54.7 113.5L-54.7 113.5L-122.8 28L-98.5 -78.6Z" fill="#297EA6"></path></g><g transform="translate(899 77)"><path d="M0 -137L107.1 -85.4L133.6 30.5L59.4 123.4L-59.4 123.4L-133.6 30.5L-107.1 -85.4Z" fill="#297EA6"></path></g><g transform="translate(81 557)"><path d="M0 -100L78.2 -62.3L97.5 22.3L43.4 90.1L-43.4 90.1L-97.5 22.3L-78.2 -62.3Z" fill="#297EA6"></path></g></g></svg>