<svg id="visual" viewBox="0 0 900 600" width="900" height="600" xmlns="http://www.w3.org/2000/svg" xmlns:xlink="http://www.w3.org/1999/xlink" version="1.1"><rect x="0" y="0" width="900" height="600" fill="#002233"></rect><path d="M200 0L190.8 9.2C181.7 18.3 163.3 36.7 143 54.8C122.7 73 100.3 91 94.5 109.2C88.7 127.3 99.3 145.7 113.7 163.8C128 182 146 200 160.8 218.2C175.7 236.3 187.3 254.7 184.2 272.8C181 291 163 309 148.8 327.2C134.7 345.3 124.3 363.7 119.2 381.8C114 400 114 418 107.5 436.2C101 454.3 88 472.7 85.5 490.8C83 509 91 527 100.3 545.2C109.7 563.3 120.3 581.7 125.7 590.8L131 600L0 600L0 590.8C0 581.7 0 563.3 0 545.2C0 527 0 509 0 490.8C0 472.7 0 454.3 0 436.2C0 418 0 400 0 381.8C0 363.7 0 345.3 0 327.2C0 309 0 291 0 272.8C0 254.7 0 236.3 0 218.2C0 200 0 182 0 163.8C0 145.7 0 127.3 0 109.2C0 91 0 73 0 54.8C0 36.7 0 18.3 0 9.2L0 0Z" fill="#1c3459" stroke-linecap="round" stroke-linejoin="miter"></path></svg>